<?xml version="1.0" standalone="no"?><!DOCTYPE svg PUBLIC "-//W3C//DTD SVG 1.1//EN" "http://www.w3.org/Graphics/SVG/1.1/DTD/svg11.dtd"><svg t="1555316219377" class="icon" style="" viewBox="0 0 1024 1024" version="1.1" xmlns="http://www.w3.org/2000/svg" p-id="6711" xmlns:xlink="http://www.w3.org/1999/xlink" width="200" height="200"><defs><style type="text/css"></style></defs><path d="M267.388928 514.13504c0 58.960896-47.794176 106.753024-106.754048 106.753024S53.880832 573.095936 53.880832 514.13504s47.793152-106.761216 106.753024-106.761216S267.388928 455.175168 267.388928 514.13504z" p-id="6712"></path><path d="M619.495424 514.13504c0 58.960896-47.794176 106.753024-106.754048 106.753024s-106.753024-47.793152-106.753024-106.753024 47.793152-106.761216 106.753024-106.761216S619.495424 455.175168 619.495424 514.13504z" p-id="6713"></path><path d="M971.602944 514.13504c0 58.960896-47.794176 106.753024-106.754048 106.753024s-106.753024-47.793152-106.753024-106.753024S805.888 407.374848 864.848896 407.374848 971.602944 455.175168 971.602944 514.13504z" p-id="6714"></path></svg>